<svg id="레이어_1" data-name="레이어 1" xmlns="http://www.w3.org/2000/svg" viewBox="0 0 24 24"><defs><style>.cls-1{fill:none;}.cls-2{fill:#00d26a;}</style></defs><path class="cls-1" d="M0,0H24V24H0Z"/><path class="cls-2" d="M3.59,0H20.41A3.57,3.57,0,0,1,24,3.59V20.41A3.57,3.57,0,0,1,20.41,24H3.59A3.57,3.57,0,0,1,0,20.41V3.59A3.57,3.57,0,0,1,3.59,0Zm8.56,15.73L19,8.86A1.38,1.38,0,0,0,19,7h0a1.38,1.38,0,0,0-1.89,0l-5,5a2.1,2.1,0,0,1-3.09,0L7.77,10.66a1.38,1.38,0,0,0-1.89,0h0a1.38,1.38,0,0,0,0,1.89L9,15.63A2.32,2.32,0,0,0,12.15,15.73Z"/></svg>