<?xml version="1.0" encoding="utf-8"?>
<!-- Generator: Adobe Illustrator 25.2.0, SVG Export Plug-In . SVG Version: 6.00 Build 0)  -->
<svg version="1.1" id="레이어_1" xmlns="http://www.w3.org/2000/svg" xmlns:xlink="http://www.w3.org/1999/xlink" x="0px"
	 y="0px" viewBox="0 0 24 24" style="enable-background:new 0 0 24 24;" xml:space="preserve">
<style type="text/css">
	.st0{fill:none;}
	.st1{fill:#00D26A;}
</style>
<path class="st0" d="M0,0h24v24H0V0z"/>
<path class="st1" d="M3.6,0h16.9c2,0,3.6,1.6,3.6,3.6v16.9c0,2-1.6,3.6-3.6,3.6H3.6c-2,0-3.6-1.6-3.6-3.6V3.6C0,1.6,1.6,0,3.6,0z
	 M12.2,15.8l6.9-6.9c0.5-0.5,0.5-1.4,0-1.9l0,0c-0.5-0.5-1.4-0.5-1.9,0l-5,5c-0.9,0.9-2.3,0.9-3.1,0l-1.3-1.3
	c-0.5-0.5-1.4-0.5-1.9,0l0,0c-0.5,0.5-0.5,1.4,0,1.9l3.1,3.1C10,16.6,11.4,16.6,12.2,15.8z"/>
</svg>
