<svg id="레이어_1" data-name="레이어 1" xmlns="http://www.w3.org/2000/svg" viewBox="0 0 24 24"><defs><style>.cls-1{fill:none;}.cls-2{fill:#00d26a;}</style></defs><path class="cls-1" d="M0,0H24V24H0Z"/><path class="cls-2" d="M3.59,0H20.41A3.57,3.57,0,0,1,24,3.59V20.41A3.57,3.57,0,0,1,20.41,24H3.59A3.57,3.57,0,0,1,0,20.41V3.59A3.57,3.57,0,0,1,3.59,0ZM10.8,12v4.8A1.2,1.2,0,0,0,12,18h0a1.2,1.2,0,0,0,1.2-1.2V12A1.2,1.2,0,0,0,12,10.8h0A1.2,1.2,0,0,0,10.8,12Zm0-4.8h0A1.2,1.2,0,0,0,12,8.4h0a1.2,1.2,0,0,0,1.2-1.2h0A1.2,1.2,0,0,0,12,6h0A1.2,1.2,0,0,0,10.8,7.2Z"/></svg>