<svg id="G" xmlns="http://www.w3.org/2000/svg" viewBox="0 0 82.03 83.37"><defs><style>.cls-1{fill:#fff;}</style></defs><path class="cls-1" d="M87.56,51.48H74.92c-2.15-3.83-7-6.76-13.27-6.76-9.35,0-16.3,7-16.3,16.63s6.95,16.82,16.3,16.82c8,0,13.59-5,14.79-10.06H60.7V58.29h28v3.06C88.7,77.09,77,88.62,61.4,88.62c-15.86,0-27.55-11.53-27.55-27.27S45.54,34.08,61.4,34.08C74.86,34.08,84.59,41.73,87.56,51.48Z" transform="translate(-19.75 -19.75)"/><path class="cls-1" d="M88.66,75.89a30.82,30.82,0,1,1,1.74-25h11.38a41.69,41.69,0,1,0-1.23,25Z" transform="translate(-19.75 -19.75)"/></svg>