<svg id="레이어_1" data-name="레이어 1" xmlns="http://www.w3.org/2000/svg" viewBox="0 0 24 24"><defs><style>.cls-1{fill:none;}.cls-2{fill:#00d26a;}</style></defs><path class="cls-1" d="M0,0H24V24H0Z"/><path class="cls-2" d="M3.59,0H20.41A3.57,3.57,0,0,1,24,3.59V20.41A3.57,3.57,0,0,1,20.41,24H3.59A3.57,3.57,0,0,1,0,20.41V3.59A3.57,3.57,0,0,1,3.59,0ZM16.82,17.27A7,7,0,0,0,9,5.85l1,1.76a5,5,0,0,1,6.58,2.59,5.06,5.06,0,0,1,.41,2H14ZM15,18.54l-1-1.76a5,5,0,0,1-6.58-2.59,5.08,5.08,0,0,1-.41-2h3L7.18,7.12A7,7,0,0,0,15,18.54Z"/></svg>